<svg width="19" height="19" viewBox="0 0 19 19" fill="none" xmlns="http://www.w3.org/2000/svg">
<g clip-path="url(#clip0_2204_16)">
<path d="M8.61856 2.66529C9.7618 2.66424 10.8797 3.0023 11.8307 3.63669C12.7818 4.27107 13.5234 5.17329 13.9616 6.2292C14.3998 7.28512 14.515 8.44728 14.2926 9.56868C14.0702 10.6901 13.5202 11.7203 12.7122 12.5291C11.9042 13.3378 10.8744 13.8888 9.75324 14.1122C8.63205 14.3356 7.46978 14.2215 6.41347 13.7842C5.35716 13.347 4.45426 12.6062 3.819 11.6557C3.18375 10.7052 2.84467 9.58769 2.84467 8.44445C2.8516 6.91477 3.46198 5.44964 4.54314 4.36749C5.62431 3.28533 7.08889 2.67362 8.61856 2.66529ZM8.61856 1.58334C7.26156 1.58334 5.93504 1.98574 4.80673 2.73965C3.67843 3.49356 2.79902 4.56512 2.27972 5.81882C1.76042 7.07253 1.62455 8.45207 1.88928 9.78299C2.15402 11.1139 2.80748 12.3364 3.76702 13.296C4.72657 14.2555 5.9491 14.909 7.28002 15.1737C8.61095 15.4385 9.99049 15.3026 11.2442 14.7833C12.4979 14.264 13.5695 13.3846 14.3234 12.2563C15.0773 11.128 15.4797 9.80145 15.4797 8.44445C15.4797 6.62477 14.7568 4.87962 13.4701 3.59292C12.1834 2.30621 10.4382 1.58334 8.61856 1.58334Z" fill="white"/>
<path d="M18.4722 17.5697L14.5825 13.6536L13.833 14.3978L17.7227 18.3139C17.7716 18.3631 17.8297 18.4022 17.8936 18.429C17.9576 18.4557 18.0262 18.4696 18.0956 18.4699C18.1649 18.4701 18.2336 18.4567 18.2978 18.4304C18.362 18.4041 18.4203 18.3654 18.4695 18.3165C18.5187 18.2677 18.5578 18.2096 18.5846 18.1456C18.6114 18.0817 18.6253 18.013 18.6255 17.9437C18.6258 17.8743 18.6124 17.8056 18.586 17.7415C18.5597 17.6773 18.521 17.6189 18.4722 17.5697Z" fill="white"/>
</g>
<defs>
<clipPath id="clip0_2204_16">
<rect width="19" height="19" fill="white"/>
</clipPath>
</defs>
</svg>
