<svg width="19" height="19" viewBox="0 0 19 19" fill="none" xmlns="http://www.w3.org/2000/svg">
<path d="M9.49999 8.97223C10.2307 8.97223 10.945 8.75556 11.5525 8.34961C12.1601 7.94366 12.6336 7.36666 12.9132 6.69159C13.1928 6.01652 13.266 5.27369 13.1234 4.55704C12.9809 3.84039 12.629 3.1821 12.1124 2.66542C11.5957 2.14875 10.9374 1.79688 10.2207 1.65433C9.50409 1.51178 8.76126 1.58494 8.08618 1.86457C7.41111 2.14419 6.83412 2.61772 6.42817 3.22527C6.02222 3.83281 5.80554 4.5471 5.80554 5.27779C5.80554 6.25762 6.19478 7.19731 6.88762 7.89016C7.58046 8.583 8.52016 8.97223 9.49999 8.97223ZM9.49999 2.6389C10.0219 2.6389 10.5321 2.79367 10.9661 3.08363C11.4 3.3736 11.7383 3.78574 11.938 4.26793C12.1377 4.75012 12.19 5.28072 12.0882 5.79261C11.9863 6.30451 11.735 6.77471 11.366 7.14377C10.9969 7.51282 10.5267 7.76415 10.0148 7.86597C9.50291 7.9678 8.97232 7.91554 8.49013 7.71581C8.00793 7.51607 7.5958 7.17784 7.30583 6.74388C7.01587 6.30991 6.8611 5.79971 6.8611 5.27779C6.8611 4.57791 7.13912 3.9067 7.63401 3.41181C8.1289 2.91693 8.80011 2.6389 9.49999 2.6389V2.6389Z" fill="white"/>
<path d="M16.0814 12.862C15.235 11.9674 14.2151 11.2548 13.0839 10.7678C11.9528 10.2809 10.7342 10.0297 9.50267 10.0297C8.27114 10.0297 7.05256 10.2809 5.92141 10.7678C4.79026 11.2548 3.77031 11.9674 2.92392 12.862C2.74042 13.058 2.6385 13.3165 2.63892 13.585V16.3611C2.63892 16.6411 2.75013 16.9096 2.94808 17.1075C3.14604 17.3055 3.41452 17.4167 3.69447 17.4167H15.3056C15.5855 17.4167 15.854 17.3055 16.052 17.1075C16.2499 16.9096 16.3611 16.6411 16.3611 16.3611V13.585C16.363 13.3172 16.263 13.0588 16.0814 12.862V12.862ZM15.3056 16.3611H3.69447V13.5797C4.44245 12.7921 5.34288 12.1649 6.34094 11.7364C7.339 11.3078 8.41384 11.0868 9.50003 11.0868C10.5862 11.0868 11.6611 11.3078 12.6591 11.7364C13.6572 12.1649 14.5576 12.7921 15.3056 13.5797V16.3611Z" fill="white"/>
</svg>
