<svg width="19" height="19" viewBox="0 0 19 19" fill="none" xmlns="http://www.w3.org/2000/svg">
<path d="M7.03528 16.8889C7.69112 16.8889 8.22278 16.3572 8.22278 15.7014C8.22278 15.0455 7.69112 14.5139 7.03528 14.5139C6.37944 14.5139 5.84778 15.0455 5.84778 15.7014C5.84778 16.3572 6.37944 16.8889 7.03528 16.8889Z" fill="white"/>
<path d="M14.25 16.8889C14.9058 16.8889 15.4375 16.3572 15.4375 15.7014C15.4375 15.0455 14.9058 14.5139 14.25 14.5139C13.5942 14.5139 13.0625 15.0455 13.0625 15.7014C13.0625 16.3572 13.5942 16.8889 14.25 16.8889Z" fill="white"/>
<path d="M17.4588 2.83418C17.4097 2.77363 17.3478 2.72472 17.2775 2.69096C17.2073 2.65719 17.1304 2.63941 17.0524 2.6389H6.06409L6.40715 3.69445H16.361L14.9519 10.0278H7.0352L4.62326 2.39084C4.59717 2.30981 4.55187 2.23629 4.49121 2.17655C4.43056 2.11681 4.35635 2.07264 4.27493 2.04779L2.11104 1.38279C2.0445 1.36234 1.97459 1.3552 1.90529 1.36177C1.836 1.36835 1.76867 1.3885 1.70717 1.42109C1.58295 1.48691 1.48997 1.59938 1.44868 1.73376C1.40738 1.86814 1.42116 2.01341 1.48698 2.13763C1.5528 2.26185 1.66527 2.35483 1.79965 2.39612L3.69437 2.97668L6.11687 10.6295L5.25132 11.3367L5.1827 11.4053C4.9686 11.652 4.84725 11.9657 4.83954 12.2923C4.83183 12.6189 4.93826 12.9379 5.14048 13.1945C5.28433 13.3694 5.46713 13.5082 5.67424 13.5999C5.88136 13.6915 6.10705 13.7334 6.33326 13.7222H15.1419C15.2818 13.7222 15.4161 13.6666 15.5151 13.5677C15.614 13.4687 15.6696 13.3344 15.6696 13.1945C15.6696 13.0545 15.614 12.9202 15.5151 12.8213C15.4161 12.7223 15.2818 12.6667 15.1419 12.6667H6.24882C6.18804 12.6646 6.12883 12.6469 6.0769 12.6152C6.02497 12.5836 5.98207 12.5391 5.95236 12.486C5.92265 12.433 5.90712 12.3732 5.90728 12.3124C5.90744 12.2515 5.92327 12.1918 5.95326 12.1389L7.2252 11.0833H15.3741C15.4961 11.0863 15.6154 11.0469 15.7116 10.9719C15.8078 10.8968 15.8751 10.7907 15.9019 10.6717L17.5749 3.28279C17.591 3.20411 17.5889 3.1228 17.5687 3.04506C17.5486 2.96732 17.511 2.89519 17.4588 2.83418V2.83418Z" fill="white"/>
</svg>
