<svg width="13" height="13" viewBox="0 0 13 13" fill="none" xmlns="http://www.w3.org/2000/svg">
<path d="M4.62151 0.865648C4.86817 0.618918 5.16103 0.423197 5.48334 0.289664C5.80566 0.156131 6.15113 0.0874023 6.50001 0.0874023C6.84889 0.0874023 7.19436 0.156131 7.51667 0.289664C7.83899 0.423197 8.13184 0.618918 8.37851 0.865648L12.1344 4.62159C12.3812 4.86825 12.5769 5.1611 12.7104 5.48342C12.844 5.80574 12.9127 6.1512 12.9127 6.50009C12.9127 6.84897 12.844 7.19443 12.7104 7.51675C12.5769 7.83907 12.3812 8.13192 12.1344 8.37859L8.37851 12.1345C8.13184 12.3813 7.83899 12.577 7.51667 12.7105C7.19436 12.844 6.84889 12.9128 6.50001 12.9128C6.15113 12.9128 5.80566 12.844 5.48334 12.7105C5.16103 12.577 4.86817 12.3813 4.62151 12.1345L0.865571 8.37859C0.618842 8.13192 0.423121 7.83907 0.289588 7.51675C0.156055 7.19443 0.087326 6.84897 0.087326 6.50009C0.087326 6.1512 0.156055 5.80574 0.289588 5.48342C0.423121 5.1611 0.618842 4.86825 0.865571 4.62159L4.62151 0.865648V0.865648ZM7.62732 1.61684C7.47932 1.46873 7.30358 1.35125 7.11015 1.27109C6.91672 1.19093 6.70939 1.14968 6.50001 1.14968C6.29063 1.14968 6.0833 1.19093 5.88987 1.27109C5.69644 1.35125 5.5207 1.46873 5.3727 1.61684L1.61676 5.37277C1.46866 5.52078 1.35117 5.69652 1.27101 5.88995C1.19086 6.08338 1.1496 6.29071 1.1496 6.50009C1.1496 6.70947 1.19086 6.91679 1.27101 7.11022C1.35117 7.30365 1.46866 7.47939 1.61676 7.6274L5.3727 11.3833C5.5207 11.5314 5.69644 11.6489 5.88987 11.7291C6.0833 11.8092 6.29063 11.8505 6.50001 11.8505C6.70939 11.8505 6.91672 11.8092 7.11015 11.7291C7.30358 11.6489 7.47932 11.5314 7.62732 11.3833L11.3833 7.6274C11.5314 7.47939 11.6488 7.30365 11.729 7.11022C11.8092 6.91679 11.8504 6.70947 11.8504 6.50009C11.8504 6.29071 11.8092 6.08338 11.729 5.88995C11.6488 5.69652 11.5314 5.52078 11.3833 5.37277L7.62732 1.61684ZM6.65513 2.93646C6.75476 2.83687 6.88986 2.78092 7.03073 2.78092C7.1716 2.78092 7.3067 2.83687 7.40632 2.93646L9.00007 4.53021C9.04955 4.57956 9.0888 4.63818 9.11558 4.70272C9.14236 4.76727 9.15615 4.83646 9.15615 4.90634C9.15615 4.97621 9.14236 5.0454 9.11558 5.10995C9.0888 5.17449 9.04955 5.23311 9.00007 5.28246L7.40632 6.87621C7.30657 6.97582 7.17133 7.03173 7.03035 7.03163C6.88938 7.03153 6.75422 6.97543 6.6546 6.87568C6.55499 6.77593 6.49908 6.64069 6.49918 6.49971C6.49928 6.35874 6.55538 6.22357 6.65513 6.12396L7.34257 5.43759H5.96876C5.82786 5.43759 5.69274 5.49356 5.59311 5.59319C5.49348 5.69281 5.43751 5.82794 5.43751 5.96884V8.62509C5.43751 8.76598 5.38154 8.90111 5.28191 9.00074C5.18228 9.10037 5.04716 9.15634 4.90626 9.15634C4.76536 9.15634 4.63024 9.10037 4.53061 9.00074C4.43098 8.90111 4.37501 8.76598 4.37501 8.62509V5.96884C4.37501 5.54615 4.54292 5.14077 4.84181 4.84188C5.14069 4.543 5.54607 4.37509 5.96876 4.37509H7.34257L6.65513 3.68871C6.60566 3.63936 6.56641 3.58074 6.53963 3.5162C6.51285 3.45165 6.49906 3.38246 6.49906 3.31259C6.49906 3.24271 6.51285 3.17352 6.53963 3.10897C6.56641 3.04443 6.60566 2.98581 6.65513 2.93646V2.93646Z" fill="#EFF7F5"/>
</svg>
